<svg width="40" height="41" viewBox="0 0 40 41" fill="none" xmlns="http://www.w3.org/2000/svg">
<path d="M17.2279 10.4287C19.6331 10.4287 21.9843 11.142 23.9842 12.4782C25.9841 13.8145 27.5428 15.7138 28.4632 17.9359C29.3837 20.1581 29.6245 22.6032 29.1552 24.9622C28.686 27.3212 27.5278 29.4881 25.827 31.1889C24.1263 32.8896 21.9594 34.0478 19.6004 34.5171C17.2414 34.9863 14.7962 34.7455 12.5741 33.825C10.352 32.9046 8.45268 31.3459 7.11641 29.346C5.78015 27.3462 5.06692 24.995 5.06692 22.5897C5.06389 20.9919 5.37637 19.4091 5.98644 17.9323C6.59652 16.4555 7.49218 15.1137 8.62203 13.9838C9.75189 12.854 11.0937 11.9583 12.5705 11.3483C14.0473 10.7382 15.6301 10.4257 17.2279 10.4287ZM17.2279 16.3127C18.4244 16.3151 19.5712 16.7918 20.4168 17.6384C21.2624 18.4849 21.7379 19.6322 21.7389 20.8287C21.7425 21.7105 21.4832 22.5733 20.9941 23.307C20.505 24.0407 19.8082 24.6119 18.9929 24.9477C20.3289 25.2833 21.5474 25.9788 22.5157 26.9586C23.484 27.9383 24.1651 29.1649 24.4849 30.5047C26.0758 29.0423 27.1882 27.1337 27.6768 25.0288C28.1653 22.9238 28.0072 20.7204 27.2232 18.7067C26.4391 16.6931 25.0656 14.9629 23.2823 13.7425C21.499 12.5221 19.3888 11.8684 17.2279 11.8667C15.0675 11.8684 12.9579 12.522 11.1749 13.7418C9.39186 14.9617 8.01837 16.6912 7.23399 18.7041C6.44961 20.7171 6.29083 22.9199 6.77842 25.0245C7.266 27.1292 8.37726 29.0378 9.96692 30.5007C10.2874 29.1599 10.9697 27.9327 11.9395 26.9528C12.9093 25.973 14.1294 25.278 15.4669 24.9437C14.5107 24.5398 13.7238 23.8172 13.2401 22.8988C12.7565 21.9803 12.6058 20.9226 12.8138 19.9056C13.0218 18.8886 13.5756 17.9751 14.381 17.3202C15.1865 16.6654 16.1939 16.3098 17.2319 16.3137L17.2279 16.3127ZM23.2429 31.4807C23.248 31.4446 23.2448 31.4079 23.2335 31.3732C23.2222 31.3386 23.2032 31.3069 23.1779 31.2807C22.9579 29.8606 22.2371 28.566 21.1459 27.6308C20.0547 26.6957 18.665 26.1817 17.2279 26.1817C15.7908 26.1817 14.4011 26.6957 13.3099 27.6308C12.2187 28.566 11.498 29.8606 11.2779 31.2807C11.2779 31.3457 11.2129 31.4117 11.2129 31.4807C12.9851 32.6885 15.0834 33.3272 17.2279 33.3117C19.3723 33.3275 21.4706 32.6891 23.2429 31.4817V31.4807ZM17.2279 17.7517C16.6203 17.7517 16.0263 17.9319 15.5211 18.2694C15.0158 18.6068 14.6219 19.0865 14.3892 19.6478C14.1565 20.2091 14.0954 20.8268 14.2137 21.4228C14.3319 22.0188 14.6242 22.5663 15.0536 22.9963C15.4829 23.4262 16.0301 23.7192 16.626 23.8382C17.2218 23.9572 17.8395 23.8969 18.4011 23.665C18.9627 23.433 19.4429 23.0397 19.7811 22.5349C20.1192 22.0301 20.3001 21.4363 20.3009 20.8287C20.302 20.4247 20.2232 20.0244 20.0692 19.6509C19.9152 19.2774 19.689 18.9379 19.4034 18.652C19.1179 18.3661 18.7788 18.1395 18.4055 17.985C18.0321 17.8305 17.632 17.7512 17.2279 17.7517Z" fill="#1D2D44" stroke="#1D2D44" stroke-width="0.5"/>
<path d="M28.6321 19.5499C32.5511 19.5499 35.7281 16.3729 35.7281 12.4539C35.7281 8.5349 32.5511 5.35791 28.6321 5.35791C24.7131 5.35791 21.5361 8.5349 21.5361 12.4539C21.5361 16.3729 24.7131 19.5499 28.6321 19.5499Z" fill="#1D2D44" stroke="#F6F6F6" stroke-width="3"/>
<path d="M28.629 9.0508C28.5431 9.0508 28.4607 9.08494 28.3999 9.1457C28.3391 9.20647 28.305 9.28884 28.305 9.37477V12.1298H25.553C25.4671 12.1298 25.3847 12.1639 25.3239 12.2247C25.2631 12.2854 25.229 12.3679 25.229 12.4538C25.229 12.5397 25.2631 12.6221 25.3239 12.6829C25.3847 12.7436 25.4671 12.7778 25.553 12.7778H28.308V15.5328C28.308 15.6187 28.3421 15.7012 28.4029 15.7619C28.4637 15.8227 28.5461 15.8568 28.632 15.8568C28.7179 15.8568 28.8003 15.8227 28.8611 15.7619C28.9219 15.7012 28.956 15.6187 28.956 15.5328V12.7778H31.711C31.7969 12.7778 31.8793 12.7436 31.9401 12.6829C32.0009 12.6221 32.035 12.5397 32.035 12.4538C32.035 12.3679 32.0009 12.2854 31.9401 12.2247C31.8793 12.1639 31.7969 12.1298 31.711 12.1298H28.956V9.37477C28.956 9.33197 28.9475 9.28964 28.9311 9.25014C28.9146 9.21063 28.8905 9.17473 28.8601 9.14461C28.8296 9.11448 28.7936 9.0907 28.7539 9.0746C28.7143 9.05849 28.6718 9.0504 28.629 9.0508Z" fill="#F2F3F6" stroke="#F2F3F6" stroke-width="0.5"/>
</svg>
