<svg width="96" height="96" viewBox="0 0 96 96" fill="none" xmlns="http://www.w3.org/2000/svg">
<circle cx="48" cy="48" r="44.5" transform="rotate(-90 48 48)" stroke="#DFEEEE" stroke-width="7"/>
<path d="M77.3719 14.5991C78.6562 13.1386 78.5207 10.9019 76.9699 9.72802C72.7088 6.5026 67.9322 4.0063 62.8339 2.34965C56.6174 0.329613 50.0538 -0.399457 43.5456 0.207132C37.0373 0.813721 30.7215 2.74319 24.9854 5.87724C20.2811 8.44752 16.048 11.7836 12.4564 15.7409C11.1492 17.1811 11.4294 19.4043 12.9615 20.6023V20.6023C14.4937 21.8004 16.6963 21.5175 18.0215 20.0939C21.01 16.8836 24.5001 14.1684 28.3624 12.0581C33.2568 9.38391 38.6459 7.73756 44.1992 7.21998C49.7525 6.7024 55.3529 7.32449 60.6573 9.04811C64.8431 10.4083 68.7748 12.4318 72.3051 15.0346C73.8705 16.1888 76.0875 16.0596 77.3719 14.5991V14.5991Z" fill="#0E7C7B"/>
</svg>
