<svg width="23" height="22" viewBox="0 0 23 22" fill="none" xmlns="http://www.w3.org/2000/svg">
<path d="M11.2809 5.35907C10.1652 5.35907 9.07456 5.68992 8.14691 6.30976C7.21925 6.9296 6.49623 7.8106 6.06927 8.84136C5.64232 9.87212 5.53061 11.0063 5.74827 12.1006C5.96593 13.1948 6.50318 14.2 7.29209 14.9889C8.081 15.7778 9.08613 16.315 10.1804 16.5327C11.2746 16.7503 12.4088 16.6386 13.4396 16.2117C14.4704 15.7847 15.3514 15.0617 15.9712 14.134C16.591 13.2064 16.9219 12.1158 16.9219 11.0001C16.9231 10.259 16.778 9.52489 16.4949 8.83996C16.2118 8.15502 15.7964 7.53269 15.2723 7.00864C14.7483 6.48459 14.1259 6.06912 13.441 5.78606C12.7561 5.50299 12.022 5.35789 11.2809 5.35907ZM11.2809 14.6671C10.5557 14.6665 9.84706 14.4509 9.24442 14.0476C8.64178 13.6443 8.17224 13.0714 7.89515 12.4013C7.61807 11.7312 7.54587 10.994 7.68771 10.2828C7.82954 9.57171 8.17902 8.91859 8.69198 8.40605C9.20494 7.89352 9.85834 7.54456 10.5696 7.40332C11.2808 7.26207 12.018 7.33486 12.6879 7.61249C13.3578 7.89013 13.9303 8.36014 14.3331 8.96311C14.7359 9.56608 14.9509 10.2749 14.9509 11.0001C14.949 11.9726 14.5617 12.9047 13.8737 13.592C13.1858 14.2794 12.2534 14.666 11.2809 14.6671ZM18.4679 5.12907C18.4679 5.38931 18.3907 5.64371 18.2462 5.8601C18.1016 6.0765 17.8961 6.24517 17.6557 6.34481C17.4153 6.44444 17.1508 6.47056 16.8955 6.41986C16.6403 6.36916 16.4058 6.24393 16.2217 6.05998C16.0376 5.87604 15.9122 5.64164 15.8613 5.38642C15.8104 5.13121 15.8363 4.86664 15.9358 4.62615C16.0352 4.38567 16.2037 4.18007 16.42 4.03535C16.6363 3.89062 16.8906 3.81327 17.1509 3.81308C17.3239 3.81255 17.4953 3.84622 17.6553 3.91215C17.8152 3.97809 17.9606 4.07499 18.083 4.19728C18.2053 4.31958 18.3024 4.46485 18.3684 4.62476C18.4345 4.78467 18.4683 4.95606 18.4679 5.12907ZM22.2039 6.46408C22.2402 4.75363 21.6019 3.0976 20.4269 1.85408C19.1809 0.683049 17.5265 0.0453564 15.8169 0.0770752C14.0009 -0.0229248 8.55588 -0.0229248 6.73988 0.0770752C5.03075 0.0429408 3.37611 0.678952 2.12988 1.84907C0.956102 3.09351 0.317346 4.74874 0.350879 6.45907C0.250879 8.27507 0.250879 13.7201 0.350879 15.5361C0.314544 17.2465 0.952886 18.9026 2.12788 20.1461C3.37436 21.3164 5.02839 21.9539 6.73788 21.9231C8.55388 22.0231 13.9989 22.0231 15.8149 21.9231C17.5253 21.9594 19.1814 21.3211 20.4249 20.1461C21.5959 18.9001 22.2336 17.2457 22.2019 15.5361C22.3069 13.7201 22.3069 8.28008 22.2039 6.46408ZM19.8569 17.4851C19.6701 17.9581 19.3881 18.3876 19.0284 18.7472C18.6687 19.1067 18.239 19.3885 17.7659 19.5751C16.3179 20.1491 12.8809 20.0171 11.2809 20.0171C9.68088 20.0171 6.23888 20.1451 4.79588 19.5751C4.32279 19.3885 3.89308 19.1067 3.53339 18.7472C3.17371 18.3876 2.8917 17.9581 2.70488 17.4851C2.13088 16.0371 2.26288 12.6001 2.26288 11.0001C2.26288 9.40007 2.13488 5.95807 2.70488 4.51507C2.89159 4.04189 3.17354 3.61212 3.53323 3.25243C3.89293 2.89273 4.3227 2.61079 4.79588 2.42408C6.24388 1.85008 9.68088 1.98207 11.2809 1.98207C12.8809 1.98207 16.3229 1.85408 17.7659 2.42408C18.2391 2.61079 18.6688 2.89273 19.0285 3.25243C19.3882 3.61212 19.6702 4.04189 19.8569 4.51507C20.4309 5.96307 20.2989 9.40007 20.2989 11.0001C20.2989 12.6001 20.4309 16.0421 19.8569 17.4851Z" fill="white"/>
</svg>
