<svg width="23" height="22" viewBox="0 0 23 22" fill="none" xmlns="http://www.w3.org/2000/svg">
<path d="M22.134 11.0671C22.1336 8.95218 21.5273 6.88167 20.3868 5.10068C19.2462 3.31968 17.6193 1.90278 15.6985 1.0177C13.7777 0.132632 11.6436 -0.183544 9.54866 0.106609C7.45377 0.396761 5.48588 1.28109 3.87797 2.65491C2.27005 4.02872 1.08945 5.83449 0.47592 7.85843C-0.137608 9.88237 -0.158366 12.0397 0.416103 14.0751C0.990572 16.1105 2.13621 17.9386 3.71739 19.3431C5.29857 20.7476 7.24908 21.6697 9.338 22.0001V14.2661H6.526V11.0661H9.337V8.62906C9.337 5.85606 10.988 4.32406 13.517 4.32406C14.3488 4.335 15.1787 4.40686 16 4.53906V7.26106H14.6C14.3625 7.23019 14.1212 7.25302 13.8937 7.32787C13.6662 7.40271 13.4584 7.52766 13.2857 7.69349C13.1129 7.85933 12.9796 8.06183 12.8956 8.28606C12.8115 8.51029 12.7788 8.75053 12.8 8.98907V11.0661H15.869L15.378 14.2661H12.8V22.0001C15.4024 21.5866 17.7719 20.2586 19.4828 18.2546C21.1938 16.2506 22.1338 13.7021 22.134 11.0671Z" fill="white"/>
</svg>
