<svg width="28" height="23" viewBox="0 0 28 23" fill="none" xmlns="http://www.w3.org/2000/svg">
<path d="M24.3742 5.48305C24.3912 5.72405 24.3912 5.96405 24.3912 6.20505C24.4062 8.28413 24.0078 10.3455 23.2191 12.2692C22.4304 14.1929 21.2672 15.9407 19.797 17.4108C18.3268 18.881 16.5791 20.0443 14.6554 20.833C12.7316 21.6217 10.6703 22.0201 8.59122 22.0051C5.57105 22.0099 2.61368 21.1429 0.0742188 19.5081C0.519491 19.5572 0.967256 19.5802 1.41522 19.5771C3.91382 19.5833 6.34169 18.7477 8.30722 17.2051C7.14871 17.1841 6.02568 16.8018 5.09502 16.1116C4.16435 15.4213 3.47254 14.4576 3.11622 13.3551C3.4629 13.41 3.81322 13.4387 4.16422 13.4411C4.65722 13.4396 5.14808 13.3761 5.62522 13.2521C4.36809 12.9977 3.23779 12.3159 2.42639 11.3226C1.61499 10.3293 1.17254 9.08566 1.17422 7.80305V7.73406C1.94378 8.16168 2.80344 8.40151 3.68322 8.43405C2.50741 7.64825 1.67522 6.44391 1.35606 5.06617C1.03689 3.68844 1.25472 2.24085 1.96522 1.01805C3.3597 2.73435 5.09935 4.13839 7.07135 5.13912C9.04335 6.13985 11.2037 6.71493 13.4122 6.82706C13.3229 6.40887 13.2767 5.98265 13.2742 5.55506C13.275 4.44143 13.6104 3.35373 14.2368 2.433C14.8632 1.51228 15.7519 0.80101 16.7874 0.391437C17.823 -0.0181366 18.9578 -0.107119 20.0445 0.136028C21.1313 0.379175 22.1199 0.943234 22.8822 1.75506C24.1254 1.51546 25.3174 1.06171 26.4052 0.414054C25.991 1.69686 25.1231 2.78452 23.9642 3.47306C25.0678 3.348 26.1464 3.05846 27.1642 2.61405C26.4023 3.72061 25.4591 4.69058 24.3742 5.48305Z" fill="white"/>
</svg>
