<svg width="11" height="9" viewBox="0 0 11 9" fill="none" xmlns="http://www.w3.org/2000/svg">
<path d="M10.492 0.874229C10.4443 0.826486 10.3876 0.788611 10.3252 0.762772C10.2628 0.736932 10.196 0.723633 10.1285 0.723633C10.061 0.723633 9.99413 0.736932 9.93176 0.762772C9.86939 0.788611 9.81272 0.826486 9.76499 0.874229L3.60299 7.03622L1.23499 4.66823C1.13858 4.57182 1.00783 4.51766 0.871489 4.51766C0.73515 4.51766 0.604395 4.57182 0.507988 4.66823C0.411582 4.76463 0.357422 4.89538 0.357422 5.03172C0.357422 5.16806 0.411582 5.29882 0.507988 5.39523L3.23899 8.12623C3.28672 8.17397 3.34339 8.21185 3.40576 8.23769C3.46813 8.26353 3.53498 8.27682 3.60249 8.27682C3.67 8.27682 3.73685 8.26353 3.79922 8.23769C3.86159 8.21185 3.91826 8.17397 3.96599 8.12623L10.492 1.60023C10.5881 1.50387 10.6421 1.37333 10.6421 1.23723C10.6421 1.10113 10.5881 0.970586 10.492 0.874229Z" fill="white"/>
</svg>
