<svg width="22" height="22" viewBox="0 0 22 22" fill="none" xmlns="http://www.w3.org/2000/svg">
<path fill-rule="evenodd" clip-rule="evenodd" d="M18.7778 8.22246V18.2223C18.7778 18.5278 18.5278 18.7778 18.2222 18.7778H8.22216C7.91663 18.7778 7.66662 18.5278 7.66662 18.2223V8.22246C7.66662 7.91582 7.91551 7.66693 8.22216 7.66693H18.2222C18.5289 7.66693 18.7778 7.91581 18.7778 8.22246ZM18.2222 5.44475C19.7545 5.44475 21 6.69137 21 8.22246V18.2223C21 19.7545 19.7545 21 18.2222 21H8.22216C6.69104 21 5.44439 19.7545 5.44439 18.2223V8.22246C5.44439 6.69137 6.69104 5.44475 8.22216 5.44475H18.2222ZM15.4445 1.00018C16.0577 1.00018 16.5555 1.49796 16.5555 2.1112C16.5555 2.72461 16.0577 3.22236 15.4445 3.22236H3.22223V15.4443C3.22223 16.0576 2.72444 16.5553 2.11104 16.5553C1.49775 16.5553 1 16.0575 1 15.4443V3.77771C1 2.24327 2.24329 1 3.77777 1L15.4445 1.00018Z" fill="#1D2D44" stroke="white"/>
</svg>
