<svg width="52" height="52" viewBox="0 0 52 52" fill="none" xmlns="http://www.w3.org/2000/svg">
<path d="M52 26C52 11.6406 40.3594 0 26 0C11.6406 0 0 11.6406 0 26C0 40.3594 11.6406 52 26 52C40.3594 52 52 40.3594 52 26Z" fill="white"/>
<path d="M51.5 26C51.5 11.9167 40.0833 0.5 26 0.5C11.9167 0.5 0.5 11.9167 0.5 26C0.5 40.0833 11.9167 51.5 26 51.5C40.0833 51.5 51.5 40.0833 51.5 26Z" stroke="#E5E8EB" fill="#fff"/>
<path d="M33.4911 23.8321C32.2937 23.8321 31.3231 24.8027 31.3231 26.0001C31.3231 27.1974 32.2937 28.1681 33.4911 28.1681C34.6884 28.1681 35.6591 27.1974 35.6591 26.0001C35.6591 24.8027 34.6884 23.8321 33.4911 23.8321Z" fill="#1D2D44"/>
<path d="M26.0001 23.8321C24.8027 23.8321 23.8321 24.8027 23.8321 26.0001C23.8321 27.1974 24.8027 28.1681 26.0001 28.1681C27.1974 28.1681 28.1681 27.1974 28.1681 26.0001C28.1681 24.8027 27.1974 23.8321 26.0001 23.8321Z" fill="#1D2D44"/>
<path d="M18.509 23.8321C17.3116 23.8321 16.341 24.8027 16.341 26.0001C16.341 27.1974 17.3116 28.1681 18.509 28.1681C19.7064 28.1681 20.677 27.1974 20.677 26.0001C20.677 24.8027 19.7064 23.8321 18.509 23.8321Z" fill="#1D2D44"/>
</svg>
