<svg xmlns="http://www.w3.org/2000/svg" width="22.641" height="14.605" viewBox="0 0 22.641 14.605">
  <g id="Group_13238" data-name="Group 13238" transform="translate(18034.07 -10367)">
    <path id="Path_5541" data-name="Path 5541" d="M97.859,109.58c-1.225-1.525-5.639-6.54-11.069-6.54s-9.844,5.015-11.069,6.54a1.215,1.215,0,0,0,0,1.5c1.225,1.548,5.639,6.563,11.069,6.563s9.844-5.015,11.069-6.54a1.32,1.32,0,0,0,0-1.525ZM86.79,116.12c-4.622,0-8.62-4.46-9.729-5.777,1.063-1.34,5.107-5.777,9.729-5.777s8.62,4.46,9.729,5.777C95.433,111.683,91.412,116.12,86.79,116.12Z" transform="translate(-18109.531 10263.96)" fill="#1d2d44"/>
    <path id="Path_5542" data-name="Path 5542" d="M245.843,171.36a4.483,4.483,0,1,0,4.483,4.483A4.487,4.487,0,0,0,245.843,171.36Zm0,7.441a2.958,2.958,0,1,1,2.981-2.958A2.964,2.964,0,0,1,245.843,178.8Z" transform="translate(-18268.586 10198.459)" fill="#1d2d44"/>
  </g>
</svg>
