<svg width="28" height="17" viewBox="0 0 28 17" fill="none" xmlns="http://www.w3.org/2000/svg">
<path d="M27.0473 12.2618C27.0615 12.3331 27.059 12.4068 27.0401 12.477C27.0212 12.5473 26.9864 12.6122 26.9384 12.6669C26.8874 12.7323 26.8224 12.7855 26.7482 12.8226C26.674 12.8597 26.5924 12.8798 26.5095 12.8813C26.3926 12.8817 26.2789 12.8434 26.1861 12.7724L19.6873 7.61496V9.73921C19.687 10.5652 19.3587 11.3573 18.7746 11.9414C18.1905 12.5255 17.3985 12.8538 16.5724 12.8541H11.0167C11.048 12.6137 11.064 12.3715 11.0644 12.129C11.0644 12.0303 11.0609 11.9316 11.0575 11.8328C11.0181 11.1063 10.8353 10.3948 10.5197 9.73921C10.472 9.63709 10.4209 9.54177 10.3665 9.44305C10.3256 9.37156 10.2848 9.30007 10.2405 9.22858C10.152 9.089 10.0567 8.95283 9.95797 8.82006L9.80478 8.62601V8.62263C9.58067 8.35086 9.33101 8.1012 9.05924 7.87709H9.05584L8.86179 7.7239C8.72902 7.62517 8.59285 7.52985 8.45328 7.44134C8.38179 7.39708 8.31029 7.35623 8.23881 7.31538C8.14008 7.26091 8.04476 7.20985 7.94264 7.16219C7.19718 6.80309 6.3803 6.61692 5.55286 6.61751H5.52903C5.15024 6.61997 4.77268 6.66103 4.40222 6.74006V3.2643C4.40339 2.43795 4.73242 1.64584 5.31705 1.06184C5.90169 0.477836 6.69416 0.149684 7.52051 0.149414H16.5724C17.3985 0.149775 18.1905 0.47807 18.7746 1.06215C19.3587 1.64623 19.687 2.43829 19.6873 3.2643V5.43963L26.1861 0.282185H26.2133C26.2405 0.282185 26.2405 0.254945 26.2644 0.254945C26.2882 0.254945 26.2916 0.227705 26.3188 0.227705C26.3461 0.200471 26.3461 0.200466 26.3733 0.200466C26.4005 0.173231 26.4005 0.173246 26.4278 0.173246H26.6967C26.7239 0.20048 26.7239 0.200466 26.7512 0.200466C26.7784 0.200466 26.775 0.227705 26.8022 0.227705C26.8295 0.227705 26.8295 0.254945 26.8567 0.254945C26.8839 0.254945 26.8839 0.282185 26.9112 0.282185L26.9384 0.309404C26.9384 0.336639 26.9656 0.33665 26.9656 0.363884C26.9656 0.367473 26.9663 0.371032 26.9676 0.374356C26.969 0.377681 26.971 0.38069 26.9735 0.383229C26.976 0.385767 26.9791 0.387777 26.9824 0.389129C26.9857 0.390482 26.9893 0.391149 26.9929 0.391103V0.418343C26.9929 0.442173 27.0201 0.442181 27.0201 0.469416C27.0201 0.49665 27.0439 0.496641 27.0439 0.523875C27.0712 0.551109 27.0712 0.55112 27.0712 0.578354C27.0984 0.605589 27.0984 0.605579 27.0984 0.632814V0.738345H27.1018L27.0473 6.51539V12.2618Z" fill="#B3B5BB"/>
<path d="M11.0133 12.8545C11.0139 12.8671 11.0128 12.8797 11.0099 12.892C11.0138 12.8798 11.0161 12.8672 11.0167 12.8545H11.0133Z" fill="#B3B5BB"/>
<path d="M10.3731 11.8333C10.297 10.6062 9.75607 9.45423 8.86055 8.61184C7.96504 7.76945 6.78219 7.29993 5.55273 7.29883H5.5289C5.14916 7.30162 4.77103 7.34845 4.40209 7.43839C3.55231 7.64694 2.77514 8.08239 2.15358 8.69824C1.53202 9.31409 1.08941 10.0872 0.87304 10.935C0.656666 11.7828 0.674649 12.6735 0.925068 13.5119C1.17549 14.3503 1.64894 15.1049 2.29485 15.6952C2.94076 16.2854 3.73487 16.6891 4.59237 16.8632C5.44987 17.0373 6.33855 16.9752 7.1635 16.6835C7.98844 16.3918 8.71866 15.8815 9.27617 15.2071C9.83369 14.5328 10.1975 13.7196 10.3289 12.8546C10.3659 12.6146 10.3841 12.3722 10.3834 12.1294C10.3834 12.0307 10.38 11.932 10.3731 11.8333ZM8.35442 12.4018H5.97145V14.7541C5.96921 14.8055 5.95688 14.856 5.93515 14.9026C5.91341 14.9493 5.8827 14.9912 5.84476 15.026C5.80683 15.0607 5.7624 15.0877 5.71405 15.1053C5.66569 15.1229 5.61434 15.1308 5.56293 15.1286C5.46461 15.1254 5.37118 15.085 5.30163 15.0154C5.23207 14.9459 5.19162 14.8524 5.18847 14.7541V12.4018H2.83612C2.78487 12.3999 2.73451 12.388 2.68791 12.3666C2.64131 12.3452 2.5994 12.3148 2.56459 12.2772C2.52979 12.2395 2.50276 12.1953 2.4851 12.1472C2.46743 12.0991 2.45947 12.0479 2.46166 11.9967C2.46585 11.8984 2.50654 11.8052 2.57579 11.7353C2.64504 11.6654 2.73787 11.6239 2.83612 11.6188H5.18847V9.26988C5.18294 9.1717 5.21509 9.07511 5.27836 8.99983C5.34162 8.92454 5.43123 8.87624 5.5289 8.86477C5.54001 8.86196 5.55148 8.86081 5.56293 8.86136C5.61434 8.85912 5.66569 8.86705 5.71405 8.88466C5.7624 8.90226 5.80683 8.92921 5.84476 8.96399C5.8827 8.99876 5.91341 9.04068 5.93515 9.08732C5.95688 9.13397 5.96921 9.18443 5.97145 9.23584V11.6188H8.32039C8.39579 11.6155 8.47054 11.634 8.53573 11.672C8.60093 11.71 8.6538 11.766 8.68804 11.8333C8.71234 11.8833 8.72624 11.9377 8.72888 11.9933C8.7314 12.0447 8.72368 12.0962 8.70617 12.1447C8.68867 12.1932 8.66173 12.2377 8.62691 12.2757C8.59208 12.3137 8.55007 12.3444 8.5033 12.366C8.45653 12.3877 8.40592 12.3998 8.35442 12.4018Z" fill="#B3B5BB"/>
</svg>
