<svg xmlns="http://www.w3.org/2000/svg" xmlns:xlink="http://www.w3.org/1999/xlink" viewBox="0 0 40 40">
  <defs>
    <linearGradient id="linear-gradient" y1="0.5" x2="1" y2="0.5" gradientUnits="objectBoundingBox">
      <stop offset="0" stop-color="#1d2d44"/>
      <stop offset="0.995" stop-color="#0e7c7b"/>
    </linearGradient>
    <linearGradient id="linear-gradient-2" x1="0.291" y1="0.042" x2="0.631" y2="1.554" xlink:href="#linear-gradient"/>
    <linearGradient id="linear-gradient-3" x1="0.709" y1="1.176" x2="-0.249" y2="-0.562" xlink:href="#linear-gradient"/>
  </defs>
  <g id="Group_12110" data-name="Group 12110">
    <g id="Group_11547" data-name="Group 11547">
      <path id="Path_24" data-name="Path 24" d="M159.908,15.565a20,20,0,0,1,20,20c-2.946-4.812-6.132-9-11.456-10.2-8.062-1.528-16.086,2.555-16.524,9.591-.006.065-.01.132-.012.2s-.006.118-.006.177c0,.079,0,.157,0,.236,0,.1,0,.2.006.3a7.185,7.185,0,0,0,2.041,5.042,7.963,7.963,0,0,0,5.955,2.661s-20.74,2.818-11.763-24.18a20.036,20.036,0,0,1,11.763-3.82" transform="translate(-139.906 -15.565)" fill="url(#linear-gradient)"/>
      <path id="Path_25" data-name="Path 25" d="M282.024,190.8h-12a8,8,0,0,0-15.98-.611c.438-7.035,8.461-11.438,16.524-9.91C275.892,181.48,279.078,185.988,282.024,190.8Z" transform="translate(-242.022 -170.8)" fill="url(#linear-gradient-2)"/>
      <path id="Path_26" data-name="Path 26" d="M77,113.175H58.669a19.929,19.929,0,0,1-8-1.669,19.7,19.7,0,0,1-6.269-4.331c-.283-.287-.558-.581-.821-.884a19.713,19.713,0,0,1-3.239-5.116A20.014,20.014,0,0,1,45.85,77.818l.175-.135c.34-.263.6-.466.77-.6.028-.022.053-.043.077-.061s.616-.434.628-.442c-8.978,27,11.17,24.594,11.17,24.594a19.912,19.912,0,0,1,8,1.671A20.126,20.126,0,0,1,77,113.175Z" transform="translate(-38.667 -73.175)" fill="url(#linear-gradient-3)"/>
    </g>
  </g>
</svg>
