<svg width="135" height="40" viewBox="0 0 135 40" fill="none" xmlns="http://www.w3.org/2000/svg">
  <path d="M20.0019 -0.000976562C25.3062 -0.000976563 30.3933 2.10616 34.144 5.85689C37.8947 9.60762 40.0019 14.6947 40.0019 19.999C37.0559 15.187 33.8699 10.999 28.5459 9.79902C20.4839 8.27102 12.4599 12.354 12.0219 19.39C12.0159 19.455 12.0119 19.522 12.0099 19.59C12.0079 19.658 12.0039 19.708 12.0039 19.767C12.0039 19.846 12.0039 19.924 12.0039 20.003C12.0039 20.103 12.0039 20.203 12.0099 20.303C12.0032 22.1862 12.7361 23.9968 14.0509 25.345C14.7994 26.1838 15.717 26.8546 16.7434 27.3132C17.7698 27.7719 18.8817 28.008 20.0059 28.006C20.0059 28.006 -0.734119 30.824 8.24288 3.82602C11.6629 1.3441 15.7802 0.00704958 20.0059 0.00602341" fill="url(#paint0_linear_1428_6288)"/>
  <path d="M40.0018 19.999H28.0018C28.0142 17.922 27.2183 15.9216 25.7824 14.4208C24.3465 12.92 22.3832 12.0365 20.3076 11.9572C18.2321 11.8778 16.2071 12.6088 14.6608 13.9955C13.1145 15.3823 12.1681 17.3161 12.0219 19.388C12.4599 12.353 20.4828 7.95 28.5458 9.478C33.8698 10.679 37.0558 15.187 40.0018 19.999Z" fill="url(#paint1_linear_1428_6288)"/>
  <path d="M38.3329 39.9991H20.0019C17.2486 40.0013 14.5246 39.433 12.0019 38.33C9.65028 37.3081 7.52079 35.8369 5.73289 33.9991C5.44989 33.7121 5.17489 33.4181 4.91189 33.1151C3.57519 31.5867 2.48264 29.861 1.67289 27.9991C-0.0566269 24.0333 -0.454515 19.614 0.538841 15.4031C1.5322 11.1922 3.86331 7.41666 7.18289 4.64205L7.35789 4.50705C7.69789 4.24405 7.95789 4.04105 8.12789 3.90705C8.15589 3.88505 8.18089 3.86405 8.20489 3.84605C8.22889 3.82805 8.82089 3.41205 8.83289 3.40405C-0.14511 30.4041 20.0029 27.9981 20.0029 27.9981C22.7564 27.9959 25.4804 28.5649 28.0029 29.6691C32.6185 31.697 36.3049 35.3834 38.3329 39.9991Z" fill="url(#paint2_linear_1428_6288)"/>
  <path d="M57.2139 28.3531C55.8755 27.6787 54.7517 26.6442 53.9689 25.3661C53.2043 24.0488 52.8015 22.5527 52.8015 21.0295C52.8015 19.5064 53.2043 18.0103 53.9689 16.693C54.7519 15.4151 55.8756 14.3807 57.2139 13.706C58.6653 12.973 60.2731 12.6037 61.8989 12.6301C63.4667 12.5942 65.017 12.9649 66.3989 13.706C67.6516 14.3898 68.6391 15.4734 69.2039 16.7841L65.5349 18.7551C65.1995 18.0713 64.6763 17.4971 64.0266 17.0997C63.3769 16.7023 62.6274 16.4981 61.8659 16.511C61.2996 16.4936 60.7358 16.5922 60.209 16.8008C59.6822 17.0094 59.2037 17.3236 58.8029 17.7241C58.0195 18.6473 57.5895 19.8187 57.5895 21.0295C57.5895 22.2403 58.0195 23.4118 58.8029 24.3351C59.2036 24.7356 59.6821 25.0499 60.2089 25.2585C60.7357 25.4672 61.2996 25.5656 61.8659 25.548C62.6284 25.5661 63.38 25.364 64.0307 24.9661C64.6814 24.5681 65.2036 23.9911 65.5349 23.3041L69.2039 25.3041C68.6228 26.5924 67.6382 27.6566 66.3989 28.3361C65.0202 29.0873 63.4686 29.4638 61.8989 29.428C60.2732 29.455 58.6653 29.0861 57.2139 28.3531Z" fill="#1D2D44"/>
  <path d="M71.8149 6.68604H76.5409V29.186H71.8099L71.8149 6.68604Z" fill="#1D2D44"/>
  <path d="M84.0819 28.3532C82.7583 27.6744 81.6502 26.64 80.882 25.3662C80.1268 24.0457 79.7295 22.5509 79.7295 21.0297C79.7295 19.5085 80.1268 18.0137 80.882 16.6932C81.6502 15.4194 82.7583 14.385 84.0819 13.7062C85.518 12.998 87.0977 12.6296 88.6989 12.6296C90.3001 12.6296 91.8799 12.998 93.3159 13.7062C94.6326 14.3889 95.7346 15.4228 96.4999 16.6932C97.2548 18.0138 97.6519 19.5085 97.6519 21.0297C97.6519 22.5508 97.2548 24.0456 96.4999 25.3662C95.7348 26.6368 94.6327 27.6707 93.3159 28.3532C91.8799 29.0614 90.3001 29.4297 88.6989 29.4297C87.0977 29.4297 85.518 29.0614 84.0819 28.3532ZM91.6939 24.3202C92.4492 23.3898 92.8614 22.228 92.8614 21.0297C92.8614 19.8314 92.4492 18.6696 91.6939 17.7392C91.311 17.3352 90.8469 17.0168 90.332 16.8052C89.8172 16.5935 89.2633 16.4933 88.7069 16.5112C88.1488 16.4945 87.5934 16.5952 87.0766 16.8067C86.5598 17.0182 86.0932 17.3359 85.7069 17.7392C84.9423 18.6653 84.524 19.8287 84.524 21.0297C84.524 22.2306 84.9423 23.3941 85.7069 24.3202C86.0932 24.7234 86.5599 25.041 87.0766 25.2526C87.5934 25.4641 88.1488 25.5648 88.7069 25.5482C89.2631 25.5658 89.8168 25.4656 90.3315 25.2539C90.8461 25.0423 91.3101 24.724 91.693 24.3202H91.6939Z" fill="#1D2D44"/>
  <path d="M116.545 12.8711L109.176 30.1871C108.655 31.752 107.691 33.1321 106.401 34.1601C105.224 34.9504 103.83 35.3531 102.413 35.3121C101.559 35.3111 100.71 35.1782 99.8959 34.9181C99.1496 34.7003 98.4574 34.3283 97.8639 33.8261L99.5929 30.4601C99.9628 30.787 100.389 31.0438 100.851 31.2181C101.3 31.3951 101.778 31.4877 102.261 31.4911C102.825 31.5169 103.38 31.3513 103.838 31.0211C104.323 30.5963 104.697 30.0603 104.93 29.4591L104.99 29.3081L97.9259 12.8711H102.808L107.387 23.9401L111.997 12.8711H116.545Z" fill="#1D2D44"/>
  <path d="M134.648 6.6861V29.1861H130.127V27.3061C129.497 28.0269 128.71 28.5932 127.827 28.9611C126.943 29.3291 125.987 29.4889 125.032 29.4281C123.577 29.4484 122.141 29.0933 120.863 28.3971C119.626 27.717 118.61 26.6963 117.936 25.4561C117.238 24.0846 116.874 22.5675 116.874 21.0286C116.874 19.4898 117.238 17.9726 117.936 16.6011C118.61 15.3608 119.626 14.3399 120.863 13.6591C122.141 12.9633 123.577 12.6082 125.032 12.6281C125.94 12.5788 126.849 12.7297 127.692 13.0703C128.536 13.4109 129.294 13.9329 129.914 14.5991V6.68408L134.648 6.6861ZM128.827 24.3201C129.591 23.394 130.01 22.2305 130.01 21.0296C130.01 19.8287 129.591 18.6652 128.827 17.7391C128.032 16.9524 126.958 16.5112 125.84 16.5112C124.721 16.5112 123.648 16.9524 122.853 17.7391C122.089 18.6653 121.671 19.8287 121.671 21.0296C121.671 22.2305 122.089 23.3939 122.853 24.3201C123.648 25.1068 124.721 25.548 125.84 25.548C126.958 25.548 128.032 25.1068 128.827 24.3201Z" fill="#1D2D44"/>
  <defs>
    <linearGradient id="paint0_linear_1428_6288" x1="5.98926" y1="14.0445" x2="40.0019" y2="14.0445" gradientUnits="userSpaceOnUse">
      <stop stop-color="#1D2D44"/>
      <stop offset="0.995" stop-color="#0E7C7B"/>
    </linearGradient>
    <linearGradient id="paint1_linear_1428_6288" x1="20.164" y1="9.62989" x2="21.6484" y2="26.6937" gradientUnits="userSpaceOnUse">
      <stop stop-color="#1D2D44"/>
      <stop offset="0.995" stop-color="#0E7C7B"/>
    </linearGradient>
    <linearGradient id="paint2_linear_1428_6288" x1="27.1792" y1="46.4398" x2="-6.99719" y2="-18.5004" gradientUnits="userSpaceOnUse">
      <stop stop-color="#1D2D44"/>
      <stop offset="0.995" stop-color="#0E7C7B"/>
    </linearGradient>
  </defs>
</svg>
