<svg xmlns="http://www.w3.org/2000/svg" xmlns:xlink="http://www.w3.org/1999/xlink" viewBox="0 0 212 212">
  <defs>
    <linearGradient id="linear-gradient" y1="0.5" x2="1" y2="0.5" gradientUnits="objectBoundingBox">
      <stop offset="0" stop-color="#1d2d44"/>
      <stop offset="0.995" stop-color="#0e7c7b"/>
    </linearGradient>
    <linearGradient id="linear-gradient-2" x1="0.291" y1="0.042" x2="0.631" y2="1.554" xlink:href="#linear-gradient"/>
    <linearGradient id="linear-gradient-3" x1="0.709" y1="1.176" x2="-0.249" y2="-0.562" xlink:href="#linear-gradient"/>
  </defs>
  <g id="Group_13556" data-name="Group 13556">
    <g id="Group_13203" data-name="Group 13203">
      <path id="Path_5252" data-name="Path 5252" d="M1800.854,1616.684c-15.624-25.52-32.52-47.737-60.76-54.1-42.759-8.1-85.31,13.552-87.632,50.863-.032.343-.053.7-.062,1.051-.021.313-.032.625-.032.938-.021.416-.021.834-.021,1.25,0,.531.011,1.053.032,1.573.354,12.156,4.864,20.718,10.823,26.74a42.23,42.23,0,0,0,31.582,14.113s-110,14.948-62.383-128.235a106.084,106.084,0,0,1,168.454,85.809Z" transform="translate(-1588.705 -1510.615)" fill="url(#linear-gradient)"/>
      <path id="Path_5253" data-name="Path 5253" d="M1790,1600.186h-63.645a42.436,42.436,0,0,0-84.747-3.239c2.322-37.311,44.873-60.66,87.632-52.556C1757.481,1550.756,1774.377,1574.666,1790,1600.186Z" transform="translate(-1577.852 -1494.117)" fill="url(#linear-gradient-2)"/>
      <path id="Path_5254" data-name="Path 5254" d="M1802.762,1716.631h-97.216a105.7,105.7,0,0,1-42.437-8.853,104.485,104.485,0,0,1-33.249-22.968c-1.5-1.522-2.959-3.085-4.354-4.688a104.511,104.511,0,0,1-17.177-27.134,106.147,106.147,0,0,1,29.228-123.872c.322-.25.635-.49.927-.719,1.8-1.4,3.188-2.469,4.083-3.177.145-.115.281-.23.405-.324.064-.052,3.268-2.3,3.33-2.342-47.613,143.184,59.243,130.433,59.243,130.433a105.622,105.622,0,0,1,42.426,8.864,106.747,106.747,0,0,1,54.79,54.78Z" transform="translate(-1599.465 -1504.492)" fill="url(#linear-gradient-3)"/>
    </g>
  </g>
</svg>
