<svg xmlns="http://www.w3.org/2000/svg" width="52" height="52" viewBox="0 0 52 52"><defs><style>.a{fill:none;}.b{fill:#1D2D44;}</style></defs><g transform="translate(-377 -1083)"><g transform="translate(377 1083)"><circle class="a" cx="26" cy="26" r="26" transform="translate(0)"/></g><g transform="translate(392.118 1097.03)"><g transform="translate(0 0)"><path class="b" d="M38.984,42.762a3.631,3.631,0,0,1-7.2,0H25.568A1.062,1.062,0,0,1,24.5,41.7V40.432a2.34,2.34,0,0,1,2.348-2.33.214.214,0,0,0,.212-.213V32.8a8.271,8.271,0,0,1,5.761-7.864v-.4a2.561,2.561,0,0,1,5.121,0v.4A8.272,8.272,0,0,1,43.7,32.8v5.084a.211.211,0,0,0,.212.213,2.342,2.342,0,0,1,2.348,2.33V41.7A1.065,1.065,0,0,1,45.2,42.762Zm-1.294,0H33.074a2.351,2.351,0,0,0,4.617,0Zm7.293-2.33a1.066,1.066,0,0,0-1.068-1.059,1.486,1.486,0,0,1-1.493-1.484V32.8a7,7,0,0,0-5.28-6.771l-.481-.123V24.543a1.28,1.28,0,0,0-2.56,0v1.368l-.481.123a7,7,0,0,0-5.28,6.771v5.084a1.489,1.489,0,0,1-1.493,1.484,1.065,1.065,0,0,0-1.068,1.059v1.059h19.2Z" transform="translate(-24.5 -22)"/></g></g></g></svg>