<svg width="32" height="32" viewBox="0 0 32 32" fill="none" xmlns="http://www.w3.org/2000/svg">
<path d="M25.1915 0H6.80851C3.04828 0 0 3.04827 0 6.80851V25.1915C0 28.9517 3.04828 32 6.80851 32H25.1915C28.9517 32 32 28.9517 32 25.1915V6.80851C32 3.04827 28.9517 0 25.1915 0Z" fill="#EFF4FB"/>
<path d="M16.1138 6.46857C10.7865 6.46857 6.46784 10.7228 6.46784 15.9706C6.46784 21.2184 10.7865 25.4725 16.1138 25.4725C21.4411 25.4725 25.7598 21.2184 25.7598 15.9706C25.7598 10.7228 21.4411 6.46857 16.1138 6.46857Z" fill="#578AD2"/>
<path d="M16.0931 11.2566C15.9744 11.2548 15.8565 11.2766 15.7463 11.3207C15.6361 11.3649 15.5358 11.4304 15.4511 11.5137C15.3062 11.6838 15.2264 11.8999 15.2261 12.1234C15.2287 12.3526 15.321 12.5717 15.4831 12.7337C15.6485 12.8885 15.8666 12.9746 16.0931 12.9746C16.3197 12.9746 16.5377 12.8885 16.7032 12.7337C16.8652 12.5716 16.9573 12.3525 16.9599 12.1234C16.9616 12.0095 16.9397 11.8965 16.8956 11.7916C16.8514 11.6866 16.7859 11.592 16.7032 11.5137C16.6275 11.4275 16.5333 11.3597 16.4276 11.3152C16.322 11.2706 16.2076 11.2506 16.0931 11.2566V11.2566Z" fill="white" stroke="white" stroke-width="0.4"/>
<path d="M16.0932 14.7886C15.9793 14.7881 15.8664 14.8102 15.761 14.8536C15.6557 14.897 15.5599 14.9609 15.4794 15.0414C15.3988 15.122 15.335 15.2177 15.2916 15.3231C15.2482 15.4284 15.2261 15.5414 15.2265 15.6553V20.2149C15.2265 20.4448 15.3178 20.6653 15.4804 20.8278C15.6429 20.9904 15.8634 21.0817 16.0932 21.0817C16.3231 21.0817 16.5436 20.9904 16.7061 20.8278C16.8686 20.6653 16.96 20.4448 16.96 20.2149V15.6556C16.9604 15.5417 16.9384 15.4287 16.895 15.3233C16.8516 15.2179 16.7878 15.1222 16.7072 15.0415C16.6266 14.9609 16.5309 14.8971 16.4255 14.8537C16.3201 14.8102 16.2072 14.7881 16.0932 14.7886V14.7886Z" fill="white" stroke="white" stroke-width="0.4"/>
</svg>
