<svg width="32" height="32" viewBox="0 0 32 32" fill="none" xmlns="http://www.w3.org/2000/svg">
<path d="M25.1915 0H6.80851C3.04828 0 0 3.04827 0 6.80851V25.1915C0 28.9517 3.04828 32 6.80851 32H25.1915C28.9517 32 32 28.9517 32 25.1915V6.80851C32 3.04827 28.9517 0 25.1915 0Z" fill="#F1F8F0"/>
<path d="M16.0007 25.67C21.4221 25.67 25.8169 21.3407 25.8169 16.0002C25.8169 10.6597 21.4221 6.33044 16.0007 6.33044C10.5794 6.33044 6.18457 10.6597 6.18457 16.0002C6.18457 21.3407 10.5794 25.67 16.0007 25.67Z" fill="#6BB865"/>
<path d="M21.1314 12.5651C21.0863 12.52 21.0328 12.4842 20.974 12.4598C20.9151 12.4354 20.852 12.4229 20.7882 12.4229C20.7245 12.4229 20.6614 12.4354 20.6025 12.4598C20.5436 12.4842 20.4901 12.52 20.4451 12.5651L14.6333 18.3781L12.3978 16.1436C12.3527 16.0985 12.2992 16.0628 12.2403 16.0384C12.1815 16.014 12.1184 16.0015 12.0546 16.0015C11.9259 16.0015 11.8025 16.0526 11.7115 16.1436C11.6205 16.2346 11.5693 16.358 11.5693 16.4867C11.5693 16.6154 11.6205 16.7389 11.7115 16.8299L14.2888 19.4072C14.3799 19.4982 14.5033 19.5493 14.632 19.5493C14.7607 19.5493 14.8841 19.4982 14.9751 19.4072L21.1314 13.2514C21.1765 13.2063 21.2122 13.1528 21.2366 13.0939C21.261 13.0351 21.2736 12.9719 21.2736 12.9082C21.2736 12.8445 21.261 12.7814 21.2366 12.7225C21.2122 12.6636 21.1765 12.6101 21.1314 12.5651Z" fill="white" stroke="white"/>
</svg>
