<svg width="32" height="32" viewBox="0 0 32 32" fill="none" xmlns="http://www.w3.org/2000/svg">
<path d="M25.1915 0H6.80851C3.04827 0 0 3.04827 0 6.80851V25.1915C0 28.9517 3.04827 32 6.80851 32H25.1915C28.9517 32 32 28.9517 32 25.1915V6.80851C32 3.04827 28.9517 0 25.1915 0Z" fill="#FDF0F0"/>
<path d="M15.9998 25.6702C21.4211 25.6702 25.8159 21.3409 25.8159 16.0004C25.8159 10.6599 21.4211 6.33057 15.9998 6.33057C10.5784 6.33057 6.18359 10.6599 6.18359 16.0004C6.18359 21.3409 10.5784 25.6702 15.9998 25.6702Z" fill="#EB6969"/>
<path d="M19.5356 12.4643C19.4464 12.3751 19.3255 12.325 19.1993 12.3249C19.0732 12.3247 18.9522 12.3747 18.8628 12.4637L16.0004 15.3261L13.1382 12.4639C13.0489 12.3746 12.9278 12.3244 12.8015 12.3244C12.6752 12.3245 12.5541 12.3746 12.4648 12.4639C12.3755 12.5532 12.3253 12.6744 12.3253 12.8007C12.3253 12.927 12.3755 13.0481 12.4648 13.1374L15.327 15.9996L12.4646 18.8619C12.3753 18.9512 12.3251 19.0724 12.3251 19.1987C12.3251 19.325 12.3753 19.4461 12.4646 19.5354C12.5539 19.6247 12.675 19.6749 12.8013 19.6749C12.9276 19.6748 13.0487 19.6247 13.138 19.5354L15.9991 16.6742L18.8612 19.5363C18.9505 19.6256 19.0716 19.6757 19.1979 19.6757C19.3242 19.6757 19.4453 19.6256 19.5346 19.5363C19.6239 19.4469 19.6741 19.3258 19.6741 19.1995C19.6741 19.0732 19.6239 18.9521 19.5346 18.8628L16.6726 16.0008L19.5362 13.1371C19.6253 13.0478 19.6752 12.9267 19.6751 12.8006C19.675 12.6745 19.6248 12.5535 19.5356 12.4643Z" fill="white" stroke="white" stroke-width="0.5"/>
</svg>
