<svg xmlns="http://www.w3.org/2000/svg" width="34" height="34" viewBox="0 0 34 34">
  <g transform="translate(1954.084 -887.042) rotate(90)" fill="currentColor">
    <g transform="translate(894.615 1942.81) rotate(-90)">
      <path d="M3.442,16.454h0l8.132-5.989a1.323,1.323,0,0,0,0-2.26L3.442,2.215c-.846-.623-1.534-.275-1.534.779V15.675c0,1.057.687,1.4,1.534.779Zm1.132,1.537h0A2.75,2.75,0,0,1,0,15.675V2.994A2.751,2.751,0,0,1,4.574.679l8.132,5.989a3.224,3.224,0,0,1,0,5.332Z"/>
    </g>
  </g>
</svg>
