<svg xmlns="http://www.w3.org/2000/svg" width="35" height="35" viewBox="0 0 35 35">
  <g id="Group_12092" data-name="Group 12092" transform="translate(-1719.778 -310.534)">
    <g id="Component_26_4" data-name="Component 26 – 4" transform="translate(1719.778 310.534)">
      <g id="Group_5272" data-name="Group 5272" transform="translate(0 0)">
        <rect id="Rectangle_737" data-name="Rectangle 737" width="35" height="35" rx="17.5" transform="translate(0 35) rotate(-90)" fill="rgba(0,0,0,0.4)"/>
        <path id="Path_5424" data-name="Path 5424" d="M73.89,7.75H64.23a2.671,2.671,0,0,0-2.67,2.67V20.08a2.671,2.671,0,0,0,2.67,2.67H73.89a2.671,2.671,0,0,0,2.67-2.67V10.42A2.671,2.671,0,0,0,73.89,7.75Zm-4.406,12a1.067,1.067,0,0,1-1.065,1.065H64.57A1.067,1.067,0,0,1,63.5,19.747V15.9a1.067,1.067,0,0,1,1.065-1.065H68.42A1.067,1.067,0,0,1,69.485,15.9Zm5.134-6.792a.506.506,0,1,1-1.011,0V11.417L70.82,14.205l-.7-.731L72.9,10.7H71.359a.506.506,0,1,1,0-1.011h2.757a.475.475,0,0,1,.182.037H74.3a.505.505,0,0,1,.276.276s0,0,0,.007a.549.549,0,0,1,.034.185Z" transform="translate(-51.56 2.25)" fill="#fff"/>
      </g>
    </g>
  </g>
</svg>
