<svg width="41" height="41" viewBox="0 0 41 41" fill="none" xmlns="http://www.w3.org/2000/svg">
<path d="M19.4339 8.27198C17.6233 8.27379 15.8401 8.71454 14.2372 9.55647C12.6342 10.3984 11.2593 11.6164 10.2302 13.1061C9.20104 14.5958 8.54843 16.3128 8.32824 18.11C8.10806 19.9071 8.32687 21.7309 8.96592 23.425C9.60496 25.1191 10.6452 26.633 11.9975 27.837C13.3498 29.0409 14.9738 29.8991 16.7304 30.338C18.4871 30.7769 20.3239 30.7833 22.0835 30.3568C23.8432 29.9302 25.4732 29.0835 26.8339 27.889L31.5789 32.643C31.6455 32.7101 31.7247 32.7634 31.8119 32.7998C31.8992 32.8362 31.9928 32.8549 32.0874 32.8549C32.182 32.8549 32.2756 32.8362 32.3628 32.7998C32.4501 32.7634 32.5293 32.7101 32.5959 32.643C32.7314 32.5064 32.8074 32.3219 32.8074 32.1295C32.8074 31.9371 32.7314 31.7525 32.5959 31.616L27.8519 26.872C29.276 25.254 30.203 23.2595 30.5217 21.1278C30.8403 18.9961 30.5371 16.8177 29.6484 14.854C28.7597 12.8903 27.3232 11.2248 25.5114 10.0573C23.6995 8.88979 21.5893 8.26989 19.4339 8.27198V8.27198ZM19.4339 9.71798C21.3636 9.71897 23.2496 10.2921 24.8535 11.365C26.4575 12.4378 27.7073 13.9622 28.4449 15.7453C29.1825 17.5284 29.3749 19.4902 28.9976 21.3826C28.6203 23.2751 27.6903 25.0131 26.3253 26.377C24.9603 27.741 23.2214 28.6695 21.3287 29.0452C19.436 29.421 17.4743 29.227 15.6918 28.4879C13.9093 27.7488 12.386 26.4978 11.3144 24.893C10.2429 23.2882 9.6713 21.4016 9.6719 19.472C9.67084 18.19 9.92266 16.9203 10.4129 15.7357C10.9032 14.5512 11.6223 13.4749 12.5291 12.5686C13.4358 11.6623 14.5124 10.9438 15.6973 10.4541C16.8821 9.96444 18.1519 9.71327 19.4339 9.71498V9.71798Z" fill="#1D2D44" stroke="#1D2D44"/>
</svg>
