<svg width="61" height="57" viewBox="0 0 61 57" fill="none" xmlns="http://www.w3.org/2000/svg">
<path d="M14.8848 18.2378C15.5393 17.5827 16.6007 17.5827 17.2553 18.2378L18.4413 19.4233L19.6268 18.2372C20.2819 17.5827 21.3433 17.5827 21.9978 18.2372C22.6523 18.8923 22.6523 19.9537 21.9978 20.6082L20.8118 21.7943L21.9973 22.9792C22.6518 23.6343 22.6518 24.6957 21.9973 25.3502C21.3428 26.0048 20.2814 26.0047 19.6263 25.3502L18.4413 24.1647L17.2558 25.3502C16.6013 26.0047 15.5399 26.0047 14.8854 25.3502C14.2303 24.6952 14.2303 23.6338 14.8854 22.9792L16.0703 21.7943L14.8848 20.6082C14.2298 19.9537 14.2298 18.8923 14.8848 18.2378V18.2378Z" fill="#DDE0E3"/>
<path d="M38.3546 18.2378C39.0091 17.5827 40.071 17.5827 40.7256 18.2378L41.9111 19.4233L43.0971 18.2372C43.7516 17.5827 44.813 17.5827 45.4676 18.2372C46.1226 18.8923 46.1226 19.9537 45.4676 20.6082L44.2821 21.7943L45.467 22.9792C46.1221 23.6343 46.1221 24.6957 45.467 25.3502C44.8125 26.0047 43.7511 26.0047 43.0966 25.3502L41.9111 24.1647L40.7261 25.3502C40.0711 26.0047 39.0097 26.0047 38.3551 25.3502C37.7006 24.6952 37.7006 23.6338 38.3551 22.9792L39.5401 21.7943L38.3546 20.6082C37.6995 19.9537 37.6995 18.8923 38.3546 18.2378V18.2378Z" fill="#DDE0E3"/>
<path d="M17.9505 41.4219C17.2949 42.0759 16.2335 42.0742 15.5795 41.4191C14.9256 40.7635 14.9267 39.7021 15.5823 39.0481L18.9441 35.6948C19.5992 35.042 20.659 35.0425 21.3134 35.6965L23.4806 37.8643L25.6485 35.6965C25.9628 35.3821 26.3888 35.2053 26.8334 35.2053C27.2785 35.2053 27.7046 35.3821 28.0195 35.6965L30.1867 37.8643L32.3539 35.6965C33.009 35.042 34.0704 35.042 34.7249 35.6965L36.8922 37.8643L39.06 35.6965C39.3749 35.3816 39.802 35.2053 40.2472 35.2053C40.6923 35.2059 41.1189 35.3833 41.4332 35.6987L44.773 39.052C45.4264 39.7076 45.4241 40.7691 44.7685 41.4225C44.1124 42.0764 43.0509 42.0742 42.3975 41.418L40.2432 39.2552L38.0783 41.4201C37.4232 42.0752 36.3618 42.0752 35.7073 41.4201L33.5395 39.2529L31.3722 41.4201C31.0579 41.7345 30.6313 41.9113 30.1867 41.9113C29.7422 41.9113 29.3156 41.7345 29.0012 41.4201L26.8334 39.2529L24.6662 41.4201C24.0117 42.0752 22.9503 42.0752 22.2952 41.4201L20.1262 39.2512L17.9505 41.4219Z" fill="#DDE0E3"/>
<path fill-rule="evenodd" clip-rule="evenodd" d="M13.4115 0C6.00438 0 0 6.00495 0 13.4121V43.5885C0 50.9956 6.00438 57 13.4115 57H46.9418C54.3484 57 60.3533 50.995 60.3533 43.5885V13.4121C60.3533 6.00495 54.3484 0 46.9418 0H13.4115ZM46.9418 3.35331H13.4115C7.8562 3.35331 3.35274 7.85678 3.35274 13.4121V43.5885C3.35274 49.1438 7.8562 53.6473 13.4115 53.6473H46.9418C52.4971 53.6473 57.0006 49.1438 57.0006 43.5885V13.4121C57.0006 7.85678 52.4971 3.35331 46.9418 3.35331Z" fill="#DDE0E3"/>
</svg>
