<svg xmlns="http://www.w3.org/2000/svg" width="52" height="52" viewBox="0 0 52 52"><defs><style>.a{fill:#0e7c7b;}.b{fill:#fff;stroke:#fff;stroke-width:0.5px;}</style></defs><g transform="translate(-507 -2185)"><rect class="a" width="52" height="52" rx="26" transform="translate(507 2185)"/><g transform="translate(522.6 2200.6)"><path class="b" d="M14.5,17.491a3,3,0,1,0-3-3A3,3,0,0,0,14.5,17.491Zm0-5.446A2.451,2.451,0,1,1,12.045,14.5,2.454,2.454,0,0,1,14.5,12.045Z" transform="translate(-11.5 -11.5)"/><path class="b" d="M42,11.5a3,3,0,1,0,3,3A3,3,0,0,0,42,11.5Zm0,5.446A2.451,2.451,0,1,1,44.446,14.5,2.454,2.454,0,0,1,42,16.946Z" transform="translate(-31.511 -11.5)"/><path class="b" d="M69.5,11.5a3,3,0,1,0,3,3A3,3,0,0,0,69.5,11.5Zm0,5.446A2.451,2.451,0,1,1,71.946,14.5,2.454,2.454,0,0,1,69.5,16.946Z" transform="translate(-51.523 -11.5)"/><path class="b" d="M14.5,44.991a3,3,0,1,0-3-3A3,3,0,0,0,14.5,44.991Zm0-5.446A2.451,2.451,0,1,1,12.045,42,2.454,2.454,0,0,1,14.5,39.545Z" transform="translate(-11.5 -31.511)"/><path class="b" d="M42,39a3,3,0,1,0,3,3A3,3,0,0,0,42,39Zm0,5.446A2.451,2.451,0,1,1,44.446,42,2.454,2.454,0,0,1,42,44.446Z" transform="translate(-31.511 -31.511)"/><path class="b" d="M69.5,39a3,3,0,1,0,3,3A3,3,0,0,0,69.5,39Zm0,5.446A2.451,2.451,0,1,1,71.946,42,2.454,2.454,0,0,1,69.5,44.446Z" transform="translate(-51.523 -31.511)"/><path class="b" d="M14.5,72.491a3,3,0,1,0-3-3A3,3,0,0,0,14.5,72.491Zm0-5.446A2.451,2.451,0,1,1,12.045,69.5,2.454,2.454,0,0,1,14.5,67.045Z" transform="translate(-11.5 -51.523)"/><path class="b" d="M42,66.5a3,3,0,1,0,3,3A3,3,0,0,0,42,66.5Zm0,5.446A2.451,2.451,0,1,1,44.446,69.5,2.454,2.454,0,0,1,42,71.946Z" transform="translate(-31.511 -51.523)"/><path class="b" d="M69.5,66.5a3,3,0,1,0,3,3A3,3,0,0,0,69.5,66.5Zm0,5.446A2.451,2.451,0,1,1,71.946,69.5,2.454,2.454,0,0,1,69.5,71.946Z" transform="translate(-51.523 -51.523)"/></g></g></svg>