<svg xmlns="http://www.w3.org/2000/svg" width="40" height="40" viewBox="0 0 40 40">
  <g id="Group_13405" data-name="Group 13405" transform="translate(-431 -1236)">
    <rect id="Rectangle_2155" data-name="Rectangle 2155" width="40" height="40" transform="translate(431 1236)" fill="none"/>
    <g id="Group_5054" data-name="Group 5054" transform="translate(443 1246.667)">
      <path id="Path_5216" data-name="Path 5216" d="M25.159,15.484a2.992,2.992,0,1,0-2.992-2.992,3.455,3.455,0,0,0,.115.852L17.4,16.5l.069.115a3.02,3.02,0,0,0-1.979-.76,2.992,2.992,0,0,0,0,5.984,3.149,3.149,0,0,0,1.864-.644l4.9,3.291a3.553,3.553,0,0,0-.092.691,2.967,2.967,0,1,0,.138-.921l-4.788-3.222a2.979,2.979,0,0,0,.046-4.35l4.811-3.107A3.014,3.014,0,0,0,25.159,15.484Zm0,6.905A2.762,2.762,0,1,1,22.4,25.151,2.77,2.77,0,0,1,25.159,22.389Zm-6.905-3.568a2.762,2.762,0,1,1-2.762-2.762A2.77,2.77,0,0,1,18.254,18.822ZM25.159,9.73A2.762,2.762,0,1,1,22.4,12.492,2.77,2.77,0,0,1,25.159,9.73Z" transform="translate(-12.5 -9.5)" fill="#1d2d44" stroke="#1d2d44" stroke-width="1"/>
    </g>
  </g>
</svg>
