<svg width="24" height="14" viewBox="0 0 24 14" fill="none" xmlns="http://www.w3.org/2000/svg">
<path d="M23.4111 6.8973L23.4656 1.1236H23.4622V1.01467C23.4622 0.987431 23.4622 0.98743 23.4349 0.960195C23.4349 0.932961 23.435 0.932963 23.4077 0.909133C23.4077 0.881898 23.3805 0.881897 23.3805 0.854663C23.3805 0.827428 23.3567 0.827427 23.3567 0.800193V0.772953C23.3533 0.773386 23.3498 0.773098 23.3466 0.772101C23.3433 0.771103 23.3403 0.769429 23.3377 0.767176C23.3351 0.764924 23.333 0.762142 23.3316 0.759031C23.3302 0.75592 23.3294 0.752551 23.3294 0.74913V0.745723C23.3294 0.718488 23.3022 0.718487 23.3022 0.691253L23.275 0.664023C23.2477 0.664023 23.2477 0.64019 23.2205 0.64019C23.1933 0.64019 23.1933 0.61295 23.166 0.61295C23.1388 0.61295 23.1388 0.58572 23.1116 0.58572C23.0843 0.58572 23.0877 0.585725 23.0605 0.55849H22.7916C22.7643 0.55849 22.7643 0.558486 22.7371 0.58572C22.7098 0.58572 22.7099 0.585716 22.6826 0.61295C22.6554 0.61295 22.6554 0.64019 22.6281 0.64019C22.6009 0.64019 22.6009 0.664023 22.5771 0.664023H22.5498L16.0511 5.82495V3.64618C16.0508 2.82016 15.7225 2.02808 15.1384 1.444C14.5543 0.85991 13.7623 0.531611 12.9362 0.53125H3.88434C3.05799 0.53152 2.26552 0.859676 1.68088 1.44368C1.09625 2.02769 0.767225 2.81982 0.766052 3.64618V10.1212C0.767225 10.9475 1.09625 11.7397 1.68088 12.3237C2.26552 12.9077 3.05799 13.2358 3.88434 13.2361H12.9362C13.7623 13.2357 14.5543 12.9074 15.1384 12.3234C15.7225 11.7393 16.0508 10.9472 16.0511 10.1212V8.00029L22.5498 13.1578C22.6422 13.2293 22.7565 13.2666 22.8733 13.2633C22.9562 13.2618 23.0378 13.2417 23.112 13.2046C23.1862 13.1675 23.2512 13.1143 23.3022 13.0489C23.3502 12.9949 23.385 12.9305 23.4039 12.8608C23.4228 12.7911 23.4253 12.718 23.4111 12.6472V6.8973Z" fill="#B3B5BB"/>
</svg>
