<svg id="Icon_annotation_active" xmlns="http://www.w3.org/2000/svg" width="94" height="94" viewBox="0 0 94 94">
  <g id="Group_3245" data-name="Group 3245" transform="translate(0)">
    <rect id="Rectangle_808" data-name="Rectangle 808" width="94" height="94" rx="47" fill="#fff"/>
    <g id="Group_5244" data-name="Group 5244" transform="translate(23.296 25.205)">
      <g id="Group_3539" data-name="Group 3539" transform="translate(0)">
        <path id="Path_5077" data-name="Path 5077" d="M4.7,1.619S16.779.169,18.184.212s6.534-.5,8.921,0a36.738,36.738,0,0,0,7.938.873,37.1,37.1,0,0,1,5.292,0c1.789.205,2.085.119,2.9.534a4.282,4.282,0,0,1,2.224,1.905,39.779,39.779,0,0,1,1.789,6.038c.044.867.082,4.3,0,5.626s-1.021,6.038-1.065,6.822,1.146,5.5,1.065,5.956a13.232,13.232,0,0,1-1.065,2.564c-.429.787-.3,1.114-1.8,1.611a24.048,24.048,0,0,1-5.374,1.075c-1.966.168-10.754-.577-11.907-.534s-5-.248-6.023,0-3.616.616-4.561,1.693-4.189,3.844-4.442,4.674-2.092,1.325-2.092,1.325-2.009-2.237-1.921-3.517,0-3.642,0-3.642A27.168,27.168,0,0,0,4.7,31.443C3.927,31.236.978,30.116.978,30.116S.046,30.2,0,27.967.72,15.02.978,14.608s-.561-6.4,0-7.07,1.38-3.724,1.757-4.014S4.7,1.619,4.7,1.619Z" transform="translate(0.704 1.388)" fill="#0e7c7b"/>
        <g id="Group_3208" data-name="Group 3208">
          <path id="Path_5055" data-name="Path 5055" d="M8.855,0h32.7a8.747,8.747,0,0,1,8.855,8.581V28.133a8.747,8.747,0,0,1-8.855,8.581H20.746L10.752,46.4a1.8,1.8,0,0,1-1.265.49,2.767,2.767,0,0,1-.7-.123,1.692,1.692,0,0,1-1.075-1.594V36.592A8.637,8.637,0,0,1,0,28.133V8.581A8.788,8.788,0,0,1,8.855,0ZM3.542,28.072A5.264,5.264,0,0,0,8.855,33.22h.632a1.742,1.742,0,0,1,1.771,1.716v6.007l7.463-7.233a1.8,1.8,0,0,1,1.265-.49H41.554a5.264,5.264,0,0,0,5.313-5.149V8.581a5.264,5.264,0,0,0-5.313-5.149H8.855A5.264,5.264,0,0,0,3.542,8.581V28.072Z" fill="#0e7c7b"/>
          <path id="Path_5056" data-name="Path 5056" d="M1.708,3.279a1.8,1.8,0,0,0,1.265-.49,1.767,1.767,0,0,0,.443-1.165A1.649,1.649,0,0,0,2.909.46a1.8,1.8,0,0,0-2.4,0A1.649,1.649,0,0,0,0,1.624,1.546,1.546,0,0,0,.506,2.789,1.519,1.519,0,0,0,1.708,3.279Z" transform="translate(23.275 23.567)" fill="#fbfbfb" stroke="#fff" stroke-width="0.4"/>
          <path id="Path_5057" data-name="Path 5057" d="M1.708,12.013a1.675,1.675,0,0,0,1.708-1.655v-8.7A1.675,1.675,0,0,0,1.708,0,1.675,1.675,0,0,0,0,1.655v8.7A1.675,1.675,0,0,0,1.708,12.013Z" transform="translate(23.275 8.09)" fill="#fbfbfb" stroke="#fff" stroke-width="0.4"/>
        </g>
      </g>
    </g>
  </g>
</svg>
