<svg viewBox="0 0 36 36" fill="none" xmlns="http://www.w3.org/2000/svg">
<path d="M18 36C27.9411 36 36 27.9411 36 18C36 8.05887 27.9411 0 18 0C8.05888 0 0 8.05887 0 18C0 27.9411 8.05888 36 18 36Z" fill="#0E7C7B" fill-opacity="1"/>
<path d="M21.5188 23.9547L19.5786 20.769C20.1487 21.0883 20.6268 21.5492 20.9666 22.1073C21.3065 22.6653 21.4967 23.3016 21.5188 23.9547V23.9547Z" fill="white"/>
<path d="M26.2546 17.6142V20.2346C26.2549 20.4807 26.2 20.7237 26.0939 20.9458C25.9879 21.1679 25.8334 21.3634 25.6419 21.518L22.2717 24.2069C22.278 24.1639 22.2805 24.1205 22.2793 24.077C22.2788 23.198 22.024 22.3379 21.5455 21.6005C21.067 20.8631 20.3853 20.2799 19.5828 19.9213L20.1634 19.4935C20.352 19.3583 20.5091 19.1838 20.6238 18.982C20.7385 18.7802 20.8081 18.5559 20.8278 18.3247L20.9577 16.9421C20.9966 16.5815 20.9132 16.2183 20.721 15.9108L19.9263 14.6427C19.8095 14.4599 19.7304 14.2556 19.6937 14.0418C19.657 13.8279 19.6634 13.6089 19.7126 13.3976L20.6674 9.31086C20.7484 8.95656 20.9446 8.63912 21.2252 8.40818C21.5059 8.17724 21.8552 8.04583 22.2185 8.03449C22.5817 8.02316 22.9385 8.13253 23.233 8.34552C23.5275 8.55852 23.7431 8.86311 23.8461 9.21167L26.1823 17.1485C26.2292 17.2994 26.2536 17.4563 26.2546 17.6142V17.6142Z" fill="white"/>
<path d="M19.5782 20.7685C19.4214 20.6798 19.258 20.603 19.0896 20.5388C18.4233 20.2701 17.6927 20.2035 16.9889 20.3473C16.7044 20.4107 16.4098 20.4135 16.1242 20.3556C15.8385 20.2976 15.5683 20.1802 15.331 20.011L15.0331 19.7973C14.8018 19.6282 14.6087 19.4122 14.4666 19.1634C14.3245 18.9146 14.2364 18.6386 14.2081 18.3535L14.0783 16.9709C14.0408 16.5298 14.1451 16.0882 14.3762 15.7105L15.1782 14.4348C15.2647 14.2948 15.3228 14.1391 15.3491 13.9765C15.3754 13.814 15.3694 13.6479 15.3314 13.4877L14.3843 9.3933C14.3235 9.11493 14.169 8.8659 13.9465 8.6879C13.724 8.5099 13.4471 8.41374 13.1622 8.41555C12.8909 8.41633 12.627 8.50442 12.4096 8.66678C12.1922 8.82913 12.0328 9.05714 11.955 9.31709L9.60205 17.2539C9.56505 17.37 9.54694 17.4913 9.54842 17.6132V20.2335C9.54868 20.4217 9.5914 20.6073 9.67343 20.7766C9.75547 20.9459 9.87466 21.0945 10.0221 21.2113L13.2993 23.8316C13.6446 24.0998 13.8895 24.4765 13.9944 24.9009C14.1887 25.7823 14.6897 26.566 15.4082 27.1122C16.1267 27.6584 17.0159 27.9315 17.9171 27.8829C18.8184 27.8343 19.673 27.467 20.3286 26.8467C20.9841 26.2264 21.3979 25.3933 21.4962 24.4961C21.5115 24.3429 21.5192 24.2058 21.5192 24.0748V23.9526C21.4968 23.2998 21.3064 22.6638 20.9664 22.106C20.6264 21.5482 20.1483 21.0876 19.5782 20.7685V20.7685ZM17.7526 25.0158C17.5562 25.0157 17.3642 24.9574 17.201 24.8482C17.0377 24.7391 16.9105 24.584 16.8354 24.4025C16.7603 24.221 16.7407 24.0214 16.779 23.8288C16.8174 23.6361 16.912 23.4592 17.0509 23.3204C17.1898 23.1815 17.3667 23.087 17.5594 23.0487C17.752 23.0104 17.9517 23.0301 18.1331 23.1053C18.3145 23.1805 18.4696 23.3077 18.5787 23.471C18.6878 23.6343 18.746 23.8263 18.746 24.0227C18.7453 24.286 18.6404 24.5382 18.4543 24.7243C18.2681 24.9104 18.0158 25.0152 17.7526 25.0158V25.0158Z" fill="white"/>
</svg>
