<svg viewBox="0 0 36 36" fill="none" xmlns="http://www.w3.org/2000/svg">
<path d="M18 36C27.9411 36 36 27.9411 36 18C36 8.05887 27.9411 0 18 0C8.05887 0 0 8.05887 0 18C0 27.9411 8.05887 36 18 36Z" fill="black" fill-opacity="0.4"/>
<path d="M10.8893 25.9997C10.6691 26.0002 10.4567 25.9178 10.2945 25.7688C10.1322 25.6198 10.032 25.4152 10.0138 25.1957C10.0059 25.1485 10.0014 25.1009 10.0005 25.053V20.6764C10.0005 20.4441 10.0928 20.2213 10.257 20.057C10.4213 19.8927 10.6441 19.8004 10.8764 19.8004C11.1088 19.8004 11.3316 19.8927 11.4958 20.057C11.6601 20.2213 11.7524 20.4441 11.7524 20.6764V23.0189L15.7691 19.0022L17.0072 20.24L12.999 24.2477H15.3255C15.5579 24.2477 15.7807 24.34 15.9449 24.5043C16.1092 24.6686 16.2015 24.8914 16.2015 25.1237C16.2015 25.356 16.1092 25.5788 15.9449 25.7431C15.7807 25.9074 15.5579 25.9997 15.3255 25.9997H10.8893ZM25.0548 25.9997H20.6759C20.4436 25.9997 20.2208 25.9074 20.0565 25.7431C19.8923 25.5788 19.8 25.356 19.8 25.1237C19.8 24.8914 19.8923 24.6686 20.0565 24.5043C20.2208 24.34 20.4436 24.2477 20.6759 24.2477H23.0189L19.0013 20.232L20.2395 18.9938L24.2491 23.0025V20.6764C24.2491 20.4443 24.3413 20.2217 24.5054 20.0576C24.6695 19.8935 24.8921 19.8013 25.1241 19.8013C25.3562 19.8013 25.5788 19.8935 25.7429 20.0576C25.907 20.2217 25.9992 20.4443 25.9992 20.6764V25.0846C26.0068 25.3089 25.9281 25.5277 25.7792 25.6957C25.6304 25.8638 25.4229 25.9684 25.1992 25.9881C25.1507 25.9957 25.1017 25.9996 25.0526 25.9997H25.0548ZM20.2395 17.0077L19.0018 15.7695L23.0194 11.7533H20.6759C20.4437 11.7533 20.2209 11.661 20.0567 11.4968C19.8925 11.3326 19.8002 11.1098 19.8002 10.8776C19.8002 10.6453 19.8925 10.4226 20.0567 10.2583C20.2209 10.0941 20.4437 10.0018 20.6759 10.0018H25.0526C25.1009 10.0019 25.1492 10.0056 25.197 10.0129C25.4209 10.0321 25.629 10.1363 25.7783 10.3042C25.9276 10.4722 26.0068 10.691 25.9996 10.9156V15.3238C25.9996 15.4387 25.977 15.5525 25.933 15.6586C25.8891 15.7648 25.8246 15.8613 25.7433 15.9425C25.6621 16.0238 25.5656 16.0883 25.4595 16.1322C25.3533 16.1762 25.2395 16.1988 25.1246 16.1988C25.0097 16.1988 24.8959 16.1762 24.7897 16.1322C24.6835 16.0883 24.5871 16.0238 24.5058 15.9425C24.4246 15.8613 24.3601 15.7648 24.3161 15.6586C24.2722 15.5525 24.2495 15.4387 24.2495 15.3238V12.9977L20.2404 17.0068L20.2395 17.0077ZM15.7691 16.9997L11.7524 12.9812V15.3238C11.7524 15.5561 11.6601 15.7789 11.4958 15.9432C11.3316 16.1074 11.1088 16.1997 10.8764 16.1997C10.6441 16.1997 10.4213 16.1074 10.257 15.9432C10.0928 15.7789 10.0005 15.5561 10.0005 15.3238V10.9471C10.0007 10.8995 10.0044 10.852 10.0116 10.8049C10.0298 10.585 10.1303 10.38 10.293 10.2309C10.4557 10.0818 10.6686 9.99952 10.8893 10.0005H15.3278C15.56 10.0005 15.7828 10.0928 15.947 10.257C16.1112 10.4212 16.2035 10.644 16.2035 10.8762C16.2035 11.1085 16.1112 11.3312 15.947 11.4955C15.7828 11.6597 15.56 11.752 15.3278 11.752H12.999L17.0072 15.7602L15.7695 16.9979L15.7691 16.9997Z" fill="white"/>
</svg>
