<svg viewBox="0 0 36 36" fill="none" xmlns="http://www.w3.org/2000/svg">
<path d="M36.0001 18C36.0001 8.05887 27.9412 0 18 0C8.05889 0 0 8.05887 0 18C0 27.9411 8.05889 36 18 36C27.9412 36 36.0001 27.9411 36.0001 18Z" fill="#0E7C7B" fill-opacity="1"/>
<path d="M27.2899 18.8753L17.2188 15.9471C17.0463 15.8969 16.8635 15.8941 16.6895 15.9387C16.5155 15.9834 16.3566 16.074 16.2296 16.201C16.1026 16.3281 16.012 16.4869 15.9673 16.6609C15.9226 16.8349 15.9255 17.0177 15.9756 17.1903L18.9044 27.2609C18.9587 27.4554 19.0709 27.6288 19.2261 27.7581C19.3813 27.8874 19.5721 27.9664 19.7732 27.9847C19.9744 28.003 20.1764 27.9597 20.3523 27.8605C20.5283 27.7613 20.6699 27.611 20.7584 27.4294L22.8441 23.2579C22.9404 23.0669 23.0955 22.9118 23.2865 22.8156L27.4584 20.7276C27.6354 20.6356 27.781 20.4931 27.8767 20.3181C27.9723 20.1431 28.0138 19.9436 27.9957 19.7449C27.9776 19.5463 27.9009 19.3576 27.7752 19.2027C27.6495 19.0478 27.4806 18.9339 27.2899 18.8753V18.8753Z" fill="white"/>
<path d="M12.6256 11.0802C12.4187 10.8931 12.1478 10.7927 11.8689 10.7997C11.5901 10.8067 11.3246 10.9206 11.1273 11.1178C10.9301 11.3151 10.8162 11.5806 10.8092 11.8594C10.8022 12.1383 10.9026 12.4092 11.0897 12.6161L12.9859 14.5122C13.0881 14.6142 13.2098 14.6947 13.3436 14.749C13.4775 14.8033 13.6208 14.8302 13.7652 14.8282C14.0555 14.8245 14.3337 14.7117 14.5446 14.5122C14.7464 14.3076 14.8596 14.0317 14.8596 13.7443C14.8596 13.4568 14.7464 13.181 14.5446 12.9763L12.6256 11.0802Z" fill="white"/>
<path d="M11.7832 17.4424H9.08787C8.80735 17.4572 8.54321 17.5791 8.3499 17.783C8.15659 17.9868 8.04883 18.257 8.04883 18.5379C8.04883 18.8188 8.15659 19.0891 8.3499 19.2929C8.54321 19.4967 8.80735 19.6186 9.08787 19.6335H11.7845C11.9289 19.6346 12.0721 19.6071 12.2057 19.5523C12.3393 19.4976 12.4607 19.4168 12.5628 19.3147C12.6649 19.2126 12.7457 19.0912 12.8004 18.9576C12.8551 18.824 12.8827 18.6808 12.8815 18.5364C12.8796 18.2461 12.7631 17.9683 12.5574 17.7634C12.3517 17.5586 12.0735 17.4432 11.7832 17.4424V17.4424Z" fill="white"/>
<path d="M18.5898 12.8711C18.7342 12.8723 18.8774 12.8447 19.0111 12.79C19.1447 12.7352 19.2661 12.6545 19.3682 12.5524C19.4703 12.4503 19.5511 12.3289 19.6058 12.1952C19.6605 12.0616 19.6881 11.9184 19.6869 11.774V9.10107C19.672 8.82054 19.5501 8.5564 19.3463 8.36309C19.1425 8.16977 18.8723 8.06201 18.5914 8.06201C18.3105 8.06201 18.0403 8.16977 17.8364 8.36309C17.6326 8.5564 17.5107 8.82054 17.4958 9.10107V11.7977C17.5056 12.0828 17.6246 12.3533 17.8283 12.5531C18.0319 12.7529 18.3046 12.8668 18.5898 12.8711V12.8711Z" fill="white"/>
</svg>
