<svg xmlns="http://www.w3.org/2000/svg" viewBox="0 0 100 100">
  <g id="C_menu_opend" data-name="C menu opend" transform="translate(-150 -244)">
    <g id="Group_5264" data-name="Group 5264">
      <g id="Group_5262" data-name="Group 5262" transform="translate(6051 -19360)">
        <rect id="Rectangle_808" data-name="Rectangle 808" width="100" height="100" rx="50" transform="translate(-5901 19604)" fill="#fff"/>
        <g id="Group_5261" data-name="Group 5261" transform="translate(-5876.833 19628.166)">
          <circle id="Ellipse_309" data-name="Ellipse 309" cx="7.917" cy="7.917" r="7.917" transform="translate(18.333)" fill="#0e7c7b"/>
          <circle id="Ellipse_312" data-name="Ellipse 312" cx="7.917" cy="7.917" r="7.917" transform="translate(18.333 36.667)" fill="#0e7c7b"/>
          <circle id="Ellipse_310" data-name="Ellipse 310" cx="7.917" cy="7.917" r="7.917" transform="translate(0 18.333)" fill="#0e7c7b"/>
          <circle id="Ellipse_311" data-name="Ellipse 311" cx="7.917" cy="7.917" r="7.917" transform="translate(36.667 18.333)" fill="#0e7c7b"/>
        </g>
      </g>
    </g>
    <g id="Group_5265" data-name="Group 5265">
      <circle id="Ellipse_313" data-name="Ellipse 313" cx="13" cy="13" r="13" transform="translate(224 318)" fill="#0e7c7b"/>
      <g id="add" transform="translate(237.231 318) rotate(45)">
        <g id="Path" transform="translate(0 0)" fill="#fff">
          <path d="M 9.355660438537598 18.51132011413574 C 8.821100234985352 18.51132011413574 8.386200904846191 18.07641983032227 8.386200904846191 17.54186058044434 L 8.386200904846191 10.52512073516846 L 8.386200904846191 10.325119972229 L 8.186200141906738 10.325119972229 L 1.169460415840149 10.325119972229 C 0.6349004507064819 10.325119972229 0.2000004351139069 9.890220642089844 0.2000004351139069 9.355660438537598 C 0.2000004351139069 8.821100234985352 0.6349004507064819 8.386200904846191 1.169460415840149 8.386200904846191 L 8.186200141906738 8.386200904846191 L 8.386200904846191 8.386200904846191 L 8.386200904846191 8.186200141906738 L 8.386200904846191 1.169460415840149 C 8.386200904846191 0.6349004507064819 8.821100234985352 0.2000004351139069 9.355660438537598 0.2000004351139069 C 9.890220642089844 0.2000004351139069 10.325119972229 0.6349004507064819 10.325119972229 1.169460415840149 L 10.325119972229 8.186200141906738 L 10.325119972229 8.386200904846191 L 10.52512073516846 8.386200904846191 L 17.54186058044434 8.386200904846191 C 18.07641983032227 8.386200904846191 18.51132011413574 8.821100234985352 18.51132011413574 9.355660438537598 C 18.51132011413574 9.890220642089844 18.07641983032227 10.325119972229 17.54186058044434 10.325119972229 L 10.52512073516846 10.325119972229 L 10.325119972229 10.325119972229 L 10.325119972229 10.52512073516846 L 10.325119972229 17.54186058044434 C 10.325119972229 18.07641983032227 9.890220642089844 18.51132011413574 9.355660438537598 18.51132011413574 Z" stroke="none"/>
          <path d="M 9.355660438537598 0.3999996185302734 C 8.931380271911621 0.3999996185302734 8.586200714111328 0.7451801300048828 8.586200714111328 1.169460296630859 L 8.586200714111328 8.586200714111328 L 1.169460296630859 8.586200714111328 C 0.7451801300048828 8.586200714111328 0.3999996185302734 8.931380271911621 0.3999996185302734 9.355660438537598 C 0.3999996185302734 9.779940605163574 0.7451801300048828 10.12512016296387 1.169460296630859 10.12512016296387 L 8.586200714111328 10.12512016296387 L 8.586200714111328 17.54186058044434 C 8.586200714111328 17.96614074707031 8.931380271911621 18.31132125854492 9.355660438537598 18.31132125854492 C 9.779940605163574 18.31132125854492 10.12512016296387 17.96614074707031 10.12512016296387 17.54186058044434 L 10.12512016296387 10.12512016296387 L 17.54186058044434 10.12512016296387 C 17.96614074707031 10.12512016296387 18.31132125854492 9.779940605163574 18.31132125854492 9.355660438537598 C 18.31132125854492 8.931380271911621 17.96614074707031 8.586200714111328 17.54186058044434 8.586200714111328 L 10.12512016296387 8.586200714111328 L 10.12512016296387 1.169460296630859 C 10.12512016296387 0.7451801300048828 9.779940605163574 0.3999996185302734 9.355660438537598 0.3999996185302734 M 9.355660438537598 0 C 10.00153064727783 0 10.52512073516846 0.5235805511474609 10.52512073516846 1.169460296630859 L 10.52512073516846 8.186200141906738 L 17.54186058044434 8.186200141906738 C 18.18773078918457 8.186200141906738 18.7113208770752 8.709790229797363 18.7113208770752 9.355660438537598 C 18.7113208770752 10.00153064727783 18.18773078918457 10.52512073516846 17.54186058044434 10.52512073516846 L 10.52512073516846 10.52512073516846 L 10.52512073516846 17.54186058044434 C 10.52512073516846 18.18773078918457 10.00153064727783 18.7113208770752 9.355660438537598 18.7113208770752 C 8.709790229797363 18.7113208770752 8.186200141906738 18.18773078918457 8.186200141906738 17.54186058044434 L 8.186200141906738 10.52512073516846 L 1.169460296630859 10.52512073516846 C 0.5235805511474609 10.52512073516846 0 10.00153064727783 0 9.355660438537598 C 0 8.709790229797363 0.5235805511474609 8.186200141906738 1.169460296630859 8.186200141906738 L 8.186200141906738 8.186200141906738 L 8.186200141906738 1.169460296630859 C 8.186200141906738 0.5235805511474609 8.709790229797363 0 9.355660438537598 0 Z" stroke="none" fill="#0e7c7b"/>
        </g>
      </g>
    </g>
  </g>
</svg>
