<svg viewBox="0 0 36 36" fill="none" xmlns="http://www.w3.org/2000/svg">
<path d="M18.383 0H17.617C7.8874 0 0 7.88741 0 17.617V18.383C0 28.1126 7.8874 36 17.617 36H18.383C28.1126 36 36 28.1126 36 18.383V17.617C36 7.88741 28.1126 0 18.383 0Z" fill="black" fill-opacity="0.4"/>
<path d="M26.5657 11.482H9.43388C9.07972 11.4781 8.73852 11.6151 8.48529 11.8627C8.23206 12.1103 8.08754 12.4484 8.0835 12.8025V23.007C8.08754 23.3611 8.23206 23.6992 8.48529 23.9468C8.73852 24.1944 9.07972 24.3314 9.43388 24.3275H26.5657C26.9198 24.3314 27.261 24.1944 27.5143 23.9468C27.7675 23.6992 27.912 23.3611 27.916 23.007V12.8025C27.912 12.4484 27.7675 12.1103 27.5143 11.8627C27.261 11.6151 26.9198 11.4781 26.5657 11.482V11.482ZM19.3814 14.9212H19.6292C20.1587 14.9243 20.6788 14.7808 21.1317 14.5064C21.5847 14.232 21.9527 13.8375 22.1951 13.3667C22.2516 13.2589 22.348 13.1775 22.4637 13.1398C22.5794 13.102 22.7052 13.111 22.8144 13.1648C22.8682 13.1904 22.9164 13.2265 22.9561 13.2711C22.9957 13.3156 23.0261 13.3676 23.0453 13.424C23.0646 13.4805 23.0723 13.5402 23.0681 13.5996C23.0639 13.6591 23.0478 13.7171 23.0208 13.7703C22.7002 14.3925 22.2134 14.9138 21.6145 15.2761C21.0156 15.6385 20.328 15.8278 19.628 15.8231H19.3802L19.3814 14.9212ZM19.3814 17.175H20.5479C21.0785 17.1793 21.5999 17.0362 22.054 16.7618C22.5081 16.4873 22.8771 16.0922 23.12 15.6205C23.1765 15.5127 23.2729 15.4313 23.3886 15.3936C23.5043 15.3559 23.6301 15.3649 23.7393 15.4186C23.7931 15.4442 23.8413 15.4804 23.881 15.5249C23.9206 15.5694 23.951 15.6214 23.9702 15.6778C23.9895 15.7343 23.9972 15.794 23.993 15.8535C23.9888 15.9129 23.9727 15.971 23.9457 16.0241C23.6247 16.6471 23.1371 17.1688 22.5373 17.5312C21.9374 17.8937 21.2487 18.0825 20.5479 18.0769H19.3814V17.175ZM13.1771 13.1648C13.2863 13.111 13.4121 13.102 13.5278 13.1398C13.6435 13.1775 13.7399 13.2589 13.7964 13.3667C14.0393 13.8384 14.4083 14.2335 14.8624 14.5079C15.3165 14.7824 15.8379 14.9254 16.3685 14.9212H16.6166V15.8223H16.3685C15.6677 15.8279 14.9792 15.639 14.3794 15.2766C13.7796 14.9142 13.2921 14.3925 12.9711 13.7695C12.9442 13.7164 12.9283 13.6584 12.9242 13.5989C12.9201 13.5395 12.9279 13.4799 12.9472 13.4235C12.9666 13.3672 12.9969 13.3153 13.0366 13.2708C13.0763 13.2264 13.1244 13.1904 13.1783 13.1648H13.1771ZM12.2561 15.4186C12.3652 15.3649 12.4911 15.3559 12.6068 15.3936C12.7224 15.4313 12.8188 15.5127 12.8753 15.6205C13.1182 16.0922 13.4872 16.4874 13.9413 16.7618C14.3954 17.0363 14.9168 17.1793 15.4474 17.175H16.6136V18.0765H15.4474C14.7466 18.0822 14.0579 17.8933 13.4581 17.5309C12.8582 17.1685 12.3706 16.6468 12.0496 16.0238C12.0227 15.9705 12.0068 15.9125 12.0027 15.853C11.9986 15.7935 12.0064 15.7338 12.0258 15.6774C12.0451 15.621 12.0756 15.5691 12.1153 15.5246C12.1551 15.4802 12.2033 15.4441 12.2572 15.4186H12.2561ZM11.1274 18.2776C11.1004 18.2244 11.0843 18.1664 11.0801 18.1069C11.0759 18.0474 11.0837 17.9877 11.1029 17.9313C11.1222 17.8749 11.1525 17.8228 11.1922 17.7783C11.2318 17.7338 11.28 17.6977 11.3338 17.6721C11.443 17.6184 11.5687 17.6095 11.6843 17.6472C11.7999 17.6849 11.8962 17.7662 11.9527 17.8739C12.1956 18.3457 12.5646 18.7408 13.0187 19.0154C13.4728 19.2899 13.9942 19.433 14.5248 19.4288H16.6136V20.3303H14.5248C13.8243 20.3357 13.1359 20.1467 12.5364 19.7843C11.9368 19.4219 11.4495 18.9003 11.1286 18.2776H11.1274ZM20.8765 23.367C20.7484 23.1092 20.5493 22.8934 20.3027 22.7449C20.0561 22.5965 19.7722 22.5216 19.4844 22.529C19.2706 22.5274 19.0587 22.5689 18.8614 22.651C18.664 22.733 18.4851 22.854 18.3355 23.0066L18.3286 23.0135C18.3136 23.0269 18.2972 23.0403 18.2803 23.0537L18.2627 23.0671C18.1851 23.1208 18.093 23.1495 17.9986 23.1495C17.9043 23.1495 17.8122 23.1208 17.7346 23.0671L17.7181 23.0537C17.7001 23.0403 17.684 23.0269 17.6687 23.0135L17.6618 23.0066C17.5122 22.8539 17.3334 22.7328 17.136 22.6508C16.9386 22.5687 16.7266 22.5273 16.5129 22.529C16.2251 22.5216 15.9412 22.5965 15.6946 22.7449C15.4479 22.8934 15.2488 23.1092 15.1207 23.367H14.1468C14.2928 22.8556 14.6046 22.4073 15.0332 22.0924C15.4617 21.7776 15.9828 21.614 16.5144 21.6275C16.8669 21.6273 17.2157 21.6994 17.5392 21.8393V14.5815C17.5441 14.4623 17.5948 14.3497 17.6809 14.2671C17.7669 14.1845 17.8815 14.1384 18.0007 14.1384C18.12 14.1384 18.2346 14.1845 18.3206 14.2671C18.4066 14.3497 18.4574 14.4623 18.4622 14.5815V21.8393C18.7858 21.6995 19.1346 21.6275 19.4871 21.6275C20.0188 21.6141 20.54 21.7777 20.9688 22.0925C21.3976 22.4073 21.7097 22.8556 21.8562 23.367H20.8765ZM24.8679 18.2791C24.5469 18.9021 24.0593 19.4238 23.4595 19.7862C22.8596 20.1486 22.171 20.3375 21.4701 20.3319H19.3814V19.43H21.4686C21.9992 19.4343 22.5206 19.2912 22.9747 19.0168C23.4288 18.7423 23.7978 18.3472 24.0407 17.8754V17.8754C24.0975 17.7679 24.194 17.6869 24.3097 17.6495C24.4254 17.6122 24.5511 17.6215 24.66 17.6755V17.6755C24.7137 17.701 24.7617 17.7369 24.8013 17.7812C24.8409 17.8255 24.8713 17.8773 24.8907 17.9334C24.9101 17.9896 24.918 18.0491 24.9141 18.1084C24.9102 18.1677 24.8945 18.2256 24.8679 18.2787V18.2791Z" fill="white"/>
</svg>
